<svg width="17" height="11" viewBox="0 0 17 11" fill="none" xmlns="http://www.w3.org/2000/svg">
<path d="M14.4561 1.72707C14.4561 0.899239 13.7058 0.221924 12.7889 0.221924H10.2881V1.72707H12.7889V3.72138L9.88796 6.99507H6.95369V3.23221H3.6193C1.77705 3.23221 0.284912 4.57932 0.284912 6.2425V8.50022H1.95211C1.95211 9.74949 3.06913 10.7579 4.4529 10.7579C5.83667 10.7579 6.95369 9.74949 6.95369 8.50022H10.6882L14.4561 4.24819V1.72707ZM4.4529 9.25279C3.99442 9.25279 3.6193 8.91413 3.6193 8.50022H5.2865C5.2865 8.91413 4.91138 9.25279 4.4529 9.25279Z" fill="black"/>
<path d="M6.9537 0.974609H2.7857V2.47974H6.9537V0.974609Z" fill="black"/>
<path d="M14.4561 6.24243C13.0723 6.24243 11.9553 7.25087 11.9553 8.50014C11.9553 9.7494 13.0723 10.7578 14.4561 10.7578C15.8398 10.7578 16.9569 9.7494 16.9569 8.50014C16.9569 7.25087 15.8398 6.24243 14.4561 6.24243ZM14.4561 9.25271C13.9976 9.25271 13.6225 8.91405 13.6225 8.50014C13.6225 8.08622 13.9976 7.74757 14.4561 7.74757C14.9145 7.74757 15.2897 8.08622 15.2897 8.50014C15.2897 8.91405 14.9145 9.25271 14.4561 9.25271Z" fill="black"/>
</svg>
